<svg width="18" height="19" viewBox="0 0 18 19" fill="none" xmlns="http://www.w3.org/2000/svg">
<path d="M8.99974 0.943359C6.83333 0.943832 4.74671 1.76098 3.1561 3.2318C1.5655 4.70263 0.587821 6.71902 0.418085 8.87877C0.248348 11.0385 0.89903 13.1829 2.24034 14.8841C3.58165 16.5854 5.515 17.7185 7.65474 18.0574V12.0414H5.46874V9.55236H7.65474V7.65636C7.65474 5.49836 8.93974 4.30636 10.9067 4.30636C11.8487 4.30636 12.8337 4.47436 12.8337 4.47436V6.59336H11.7477C10.6787 6.59336 10.3447 7.25736 10.3447 7.93736V9.55236H12.7327L12.3507 12.0414H10.3447V18.0574C12.4845 17.7185 14.4178 16.5854 15.7591 14.8841C17.1004 13.1829 17.7511 11.0385 17.5814 8.87877C17.4117 6.71902 16.434 4.70263 14.8434 3.2318C13.2528 1.76098 11.1662 0.943832 8.99974 0.943359Z" fill="#fff"/>
</svg>
