<svg width="18" height="19" viewBox="0 0 18 19" fill="none" xmlns="http://www.w3.org/2000/svg">
<path d="M8.99963 0.890625C11.3376 0.890625 11.6306 0.900625 12.5496 0.942625C13.4656 0.983625 14.0916 1.12963 14.6386 1.34263C15.2056 1.56263 15.6856 1.85662 16.1636 2.33562C16.6426 2.81362 16.9366 3.29463 17.1566 3.86063C17.3696 4.40763 17.5156 5.03363 17.5576 5.94963C17.5986 6.86863 17.6086 7.16163 17.6086 9.49963C17.6086 11.8376 17.5986 12.1306 17.5576 13.0496C17.5156 13.9656 17.3696 14.5916 17.1566 15.1396C16.9407 15.714 16.6018 16.2341 16.1636 16.6636C15.7339 17.102 15.2134 17.441 14.6386 17.6566C14.0916 17.8696 13.4656 18.0156 12.5496 18.0576C11.6306 18.0996 11.3376 18.1086 8.99963 18.1086C6.66163 18.1086 6.36863 18.0996 5.44963 18.0576C4.53363 18.0156 3.90763 17.8696 3.36063 17.6566C2.78587 17.441 2.26534 17.102 1.83562 16.6636C1.39748 16.2341 1.05856 15.7139 0.842625 15.1396C0.629625 14.5916 0.483625 13.9656 0.441625 13.0496C0.400625 12.1306 0.390625 11.8376 0.390625 9.49963C0.390625 7.16163 0.400625 6.86863 0.441625 5.94963C0.483625 5.03363 0.629625 4.40763 0.842625 3.86063C1.06262 3.29463 1.35662 2.81362 1.83562 2.33562C2.26534 1.89723 2.78587 1.55828 3.36063 1.34263C3.90763 1.12963 4.53363 0.983625 5.44963 0.942625C6.36863 0.900625 6.66163 0.890625 8.99963 0.890625ZM8.99963 2.44162C6.70063 2.44162 6.42863 2.45063 5.52063 2.49163C4.68163 2.52963 4.22562 2.67063 3.92162 2.78863C3.54785 2.92644 3.20984 3.14653 2.93263 3.43263C2.6463 3.71004 2.42618 4.04843 2.28863 4.42262C2.17063 4.72562 2.02962 5.18163 1.99162 6.02063C1.95062 6.92863 1.94162 7.20063 1.94162 9.49963C1.94162 11.7986 1.95062 12.0706 1.99162 12.9786C2.02962 13.8176 2.17063 14.2736 2.28863 14.5776C2.44463 14.9796 2.63063 15.2656 2.93263 15.5676C3.23363 15.8686 3.52062 16.0546 3.92162 16.2116C4.22562 16.3286 4.68163 16.4696 5.52063 16.5076C6.42863 16.5486 6.70063 16.5576 8.99963 16.5576C11.2986 16.5576 11.5706 16.5486 12.4786 16.5076C13.3176 16.4696 13.7736 16.3286 14.0776 16.2116C14.4786 16.0546 14.7656 15.8686 15.0666 15.5676C15.3528 15.2901 15.5729 14.9517 15.7106 14.5776C15.8286 14.2736 15.9696 13.8176 16.0076 12.9786C16.0486 12.0706 16.0576 11.7986 16.0576 9.49963C16.0576 7.20063 16.0486 6.92863 16.0076 6.02063C15.9696 5.18163 15.8286 4.72562 15.7106 4.42262C15.5731 4.04841 15.353 3.71002 15.0666 3.43263C14.7894 3.14656 14.4514 2.92647 14.0776 2.78863C13.7736 2.67063 13.3176 2.52963 12.4786 2.49163C11.5706 2.45063 11.2986 2.44162 8.99963 2.44162ZM8.99963 12.3696C9.7608 12.3696 10.4908 12.0673 11.029 11.529C11.5673 10.9908 11.8696 10.2608 11.8696 9.49963C11.8696 8.73845 11.5673 8.00846 11.029 7.47023C10.4908 6.932 9.7608 6.62963 8.99963 6.62963C8.23845 6.62963 7.50846 6.932 6.97023 7.47023C6.432 8.00846 6.12963 8.73845 6.12963 9.49963C6.12963 10.2608 6.432 10.9908 6.97023 11.529C7.50846 12.0673 8.23845 12.3696 8.99963 12.3696C7.41463 12.3696 8.99963 12.3696 8.99963 12.3696ZM8.99963 5.07963C10.1719 5.07963 11.2961 5.5453 12.125 6.37421C12.9539 7.20312 13.4196 8.32737 13.4196 9.49963C13.4196 10.6719 12.9539 11.7961 12.125 12.625C11.2961 13.4539 10.1719 13.9196 8.99963 13.9196C7.82737 13.9196 6.70312 13.4539 5.87421 12.625C5.0453 11.7961 4.57963 10.6719 4.57963 9.49963C4.57963 8.32737 5.0453 7.20312 5.87421 6.37421C6.70312 5.5453 7.82737 5.07963 8.99963 5.07963C6.55763 5.07963 8.99963 5.07963 8.99963 5.07963ZM14.6286 4.90463C14.6286 5.17859 14.5198 5.44134 14.3261 5.63507C14.1323 5.82879 13.8696 5.93763 13.5956 5.93763C13.3217 5.93763 13.0589 5.82879 12.8652 5.63507C12.6715 5.44134 12.5626 5.17859 12.5626 4.90463C12.5626 4.63066 12.6715 4.36791 12.8652 4.17418C13.0589 3.98046 13.3217 3.87162 13.5956 3.87162C13.8696 3.87162 14.1323 3.98046 14.3261 4.17418C14.5198 4.36791 14.6286 4.63066 14.6286 4.90463Z" fill="#fff"/>
</svg>
